<svg xmlns="http://www.w3.org/2000/svg" width="60.314" height="51.88" viewBox="0 0 60.314 51.88">
  <g id="logo" transform="translate(-129.146 -33.12)">
    <path id="logo-2" data-name="logo" d="M-28.46-28.56V0h1.52V-11.12c0-5.04,2.8-8.6,7.4-8.6,5.6,0,5.84,4.6,5.84,6.72V0h1.52V-12.72c0-2.52-.08-8.32-7.32-8.32a7.617,7.617,0,0,0-7.36,4.88h-.08v-12.4ZM-1.5-19.24V0H.02V-19.24H4.3v-1.32H.02v-4.12c0-2.28,1.32-2.88,3-2.88a9.189,9.189,0,0,1,1.8.2v-1.32a9.189,9.189,0,0,0-1.8-.2c-2.48,0-4.52,1.2-4.52,4.08v4.24H-5.18v1.32Zm20.92-.48c5.04,0,7.48,4.2,7.48,8.8,0,4.64-2.48,8.84-7.48,8.84-4.84,0-7.36-4-7.36-8.84C12.06-15.28,14.46-19.72,19.42-19.72Zm7.52-.84v4.28h-.08a7.7,7.7,0,0,0-7.44-4.76c-5.8,0-8.88,4.68-8.88,10.12,0,5.72,2.84,10.16,8.88,10.16a7.723,7.723,0,0,0,7.44-4.68h.08V-.72c0,1.36-.12,7.24-7.32,7.24-3.36,0-6.24-1.44-6.56-5.08H11.54c.24,4.76,3.64,6.4,8.04,6.4,8.88.28,8.88-7.32,8.88-8.92V-20.56Z" transform="translate(159.5 63.5)" stroke="#000" stroke-width="3"/>
    <g id="Grupo_313" data-name="Grupo 313">
      <rect id="Retângulo_182" data-name="Retângulo 182" width="20" height="6" transform="translate(129.146 79)" fill="#ff3c00"/>
      <rect id="Retângulo_183" data-name="Retângulo 183" width="20" height="6" transform="translate(149 79)" fill="#ff9600"/>
      <rect id="Retângulo_184" data-name="Retângulo 184" width="20" height="6" transform="translate(168.854 79)" fill="#ff6800"/>
    </g>
  </g>
</svg>
